<?xml version="1.0" encoding="utf-8"?>
<!-- Generator: Adobe Illustrator 14.0.0, SVG Export Plug-In . SVG Version: 6.00 Build 43363)  -->
<!DOCTYPE svg PUBLIC "-//W3C//DTD SVG 1.1//EN" "http://www.w3.org/Graphics/SVG/1.1/DTD/svg11.dtd">
<svg version="1.1" id="Layer_1" xmlns="http://www.w3.org/2000/svg" xmlns:xlink="http://www.w3.org/1999/xlink" x="0px" y="0px"
	 width="242.986px" height="108.992px" viewBox="153.007 69.004 242.986 108.992"
	 enable-background="new 153.007 69.004 242.986 108.992" xml:space="preserve">
<g>
	<path fill="#003C6A" d="M241.754,122.276c-2.17-1.499-5.321-2.066-7.491-2.066c-2.532,0-4.185,0.671-4.185,3.461
		c0,5.424,16.376,2.221,16.376,15.137c0,4.132-1.963,7.024-4.495,8.729c-2.428,1.653-5.786,2.479-9.247,2.479
		c-3.771,0-8.886-0.929-11.778-3.564l4.132-6.147c2.325,1.86,5.786,2.635,8.473,2.635c2.428,0,4.443-0.619,4.443-3.719
		c0-6.147-16.376-2.635-16.376-15.343c0-3.772,1.653-6.199,4.029-7.956c2.583-1.911,5.734-2.79,9.299-2.79
		c3.41,0,8.008,0.827,10.745,3.1L241.754,122.276"/>
	<path fill="#003C6A" d="M271.406,145.73c-2.531,2.841-5.94,4.185-10.021,4.185c-3.874,0-6.509-1.24-8.266-3.151
		c-2.273-2.48-3.1-5.89-3.1-10.229c0-4.287,0.827-8.316,3.513-11.003c1.912-1.86,4.649-3.1,8.782-3.1
		c3.255,0,6.509,0.775,8.731,3.048l-4.546,5.476c-1.188-1.033-2.583-1.445-4.081-1.445c-3.306,0-3.927,2.014-3.927,6.663
		s0.621,6.819,3.307,6.819c1.757,0,3.41-0.878,4.805-2.376L271.406,145.73"/>
	<path fill="#003C6A" d="M294.655,147.074c-2.17,2.065-4.907,3.099-8.886,3.099c-3.874,0-6.562-0.982-8.575-2.841
		c-2.687-2.429-3.514-5.684-3.514-10.745c0-5.321,0.93-8.576,3.564-11.159c2.171-2.119,4.96-3.203,8.938-3.203
		c3.822,0,6.612,0.981,8.628,2.842c2.634,2.428,3.46,5.786,3.46,10.849C298.27,141.132,297.393,144.438,294.655,147.074
		 M288.765,129.975c-0.516-0.621-1.343-0.931-2.582-0.931c-1.498,0-2.429,0.466-2.894,1.033c-0.929,1.085-1.291,3.513-1.291,6.354
		c0,2.996,0.413,5.217,1.188,6.044c0.516,0.568,1.445,0.93,2.686,0.93c1.396,0,2.273-0.465,2.789-1.085
		c0.931-1.084,1.344-3.306,1.344-6.354C290.005,133.125,289.644,131.007,288.765,129.975z"/>
	<path fill="#003C6A" d="M311.342,123.05l-0.052,4.289c1.551-3.565,4.186-5.011,7.026-5.011c0.879,0,1.859,0.207,2.635,0.516
		l-1.033,7.697c-0.568-0.155-1.188-0.31-1.964-0.31c-4.649,0-6.198,4.649-6.198,10.436v8.73h-8.06V123.05H311.342"/>
	<path fill="#003C6A" d="M345.696,145.627c-2.944,2.996-6.562,4.391-11.21,4.391c-3.668,0-6.51-0.929-8.524-2.686
		c-2.324-2.066-3.564-5.372-3.564-10.591c0-4.339,0.878-8.369,3.461-11.056c1.86-1.911,4.702-3.306,9.041-3.306
		c8.524,0,11.158,5.424,11.158,12.709c0,1.033-0.051,1.859-0.207,3.099l-15.549,0.155c0.052,3.409,0.671,5.425,4.442,5.425
		c2.738,0,5.062-1.033,6.974-2.79L345.696,145.627 M338.361,133.022c-0.052-3.048-0.568-4.754-3.771-4.754
		c-3.255,0-4.081,1.86-4.185,4.754H338.361z"/>
	<rect x="349.055" y="131.679" fill="#003C6A" width="15.032" height="7.439"/>
	<path fill="#003C6A" d="M382.014,113.752c3.255,0,6.354,0.568,8.626,2.325c2.325,1.808,3.875,4.701,3.875,9.919
		c0,5.011-1.395,8.214-3.823,10.125c-2.169,1.704-5.062,2.377-8.885,2.377h-5.062v10.899h-8.369v-35.646H382.014 M376.745,131.317
		h4.856c1.652,0,2.635-0.311,3.254-0.931c0.775-0.723,0.982-2.118,0.982-4.236c0-2.634-0.414-3.822-1.137-4.442
		c-0.724-0.621-1.705-0.775-3.307-0.775h-4.649V131.317L376.745,131.317z"/>
	<path fill="#003C6A" d="M199.809,69.317c0,0,0.305,1.428,0.695,3.929c0.395,2.5,0.88,6.071,1.312,10.357
		c0.434,4.286,0.814,9.286,1.07,14.643c0.075,1.339,0.122,2.701,0.169,4.079c0.053,1.378,0.101,2.773,0.124,4.179
		c0.078,2.812,0.088,5.67,0.108,8.527c-0.019,2.857-0.025,5.714-0.104,8.526c-0.015,0.704-0.03,1.404-0.046,2.102
		c-0.025,0.696-0.05,1.39-0.075,2.079c-0.051,1.379-0.092,2.74-0.168,4.079c-0.124,2.679-0.289,5.268-0.466,7.724
		c-0.183,2.455-0.388,4.776-0.604,6.919c-0.22,2.143-0.446,4.106-0.672,5.849c-0.227,1.741-0.445,3.259-0.645,4.509
		c-0.394,2.5-0.7,3.929-0.7,3.929s-0.307-1.429-0.7-3.929c-0.201-1.25-0.418-2.768-0.646-4.509
		c-0.226-1.741-0.452-3.706-0.672-5.849c-0.215-2.143-0.42-4.464-0.604-6.919c-0.177-2.456-0.342-5.045-0.466-7.724
		c-0.076-1.339-0.117-2.7-0.168-4.079c-0.025-0.689-0.05-1.383-0.075-2.079c-0.015-0.697-0.031-1.397-0.045-2.102
		c-0.079-2.812-0.084-5.669-0.104-8.526c0.02-2.857,0.031-5.714,0.108-8.527c0.023-1.406,0.071-2.801,0.124-4.179
		c0.048-1.378,0.095-2.74,0.17-4.079c0.255-5.357,0.635-10.357,1.07-14.643c0.432-4.286,0.917-7.857,1.312-10.357
		C199.504,70.745,199.809,69.317,199.809,69.317"/>
	<path fill="#003C6A" d="M214.688,88.591c0,0,0.058,0.341,0.165,0.981c0.093,0.64,0.255,1.579,0.411,2.773
		c0.327,2.389,0.727,5.801,1.081,9.896c0.356,4.095,0.666,8.872,0.87,13.991c0.061,1.279,0.098,2.58,0.136,3.897
		c0.042,1.317,0.079,2.65,0.096,3.993c0.06,2.688,0.064,5.417,0.075,8.146c-0.021,2.729-0.032,5.459-0.102,8.146
		c-0.023,1.343-0.06,2.676-0.11,3.993c-0.045,1.316-0.082,2.617-0.148,3.896c-0.109,2.559-0.252,5.032-0.405,7.377
		c-0.158,2.346-0.334,4.563-0.519,6.61c-0.371,4.093-0.787,7.504-1.124,9.892c-0.162,1.194-0.328,2.132-0.424,2.771
		c-0.111,0.64-0.169,0.981-0.169,0.981s-0.059-0.342-0.166-0.982c-0.094-0.639-0.256-1.578-0.414-2.772
		c-0.328-2.389-0.731-5.802-1.086-9.896c-0.176-2.048-0.344-4.266-0.493-6.612c-0.144-2.345-0.277-4.819-0.377-7.378
		c-0.061-1.279-0.093-2.58-0.133-3.897c-0.044-1.317-0.077-2.649-0.094-3.993c-0.061-2.688-0.061-5.417-0.071-8.146
		c0.021-2.729,0.036-5.459,0.106-8.146c0.022-1.344,0.064-2.677,0.111-3.993c0.043-1.316,0.085-2.618,0.15-3.896
		c0.224-5.118,0.552-9.894,0.924-13.987c0.37-4.094,0.783-7.504,1.119-9.893c0.161-1.194,0.326-2.131,0.421-2.771
		C214.629,88.932,214.688,88.591,214.688,88.591"/>
	<path fill="#003C6A" d="M240.758,113.843c0,0-0.277,0.029-0.795,0.085c-0.518,0.047-1.279,0.134-2.247,0.21
		c-0.968,0.08-2.143,0.187-3.491,0.272c-1.349,0.095-2.869,0.204-4.528,0.285c-1.659,0.093-3.457,0.193-5.357,0.257
		c-1.901,0.073-3.906,0.162-5.979,0.209c-2.074,0.056-4.217,0.101-6.395,0.126c-2.177,0.033-4.39,0.038-6.602,0.046
		c-2.212-0.008-4.424-0.011-6.602-0.044c-2.177-0.021-4.32-0.07-6.394-0.124c-2.074-0.048-4.079-0.134-5.979-0.209
		c-1.901-0.064-3.699-0.163-5.357-0.257c-1.66-0.082-3.18-0.189-4.528-0.286c-1.348-0.087-2.523-0.193-3.491-0.274
		c-0.968-0.076-1.729-0.164-2.247-0.211c-0.518-0.056-0.795-0.085-0.795-0.085s0.277-0.03,0.795-0.086
		c0.518-0.048,1.279-0.135,2.247-0.211c0.968-0.081,2.143-0.187,3.491-0.273c1.349-0.097,2.869-0.204,4.528-0.286
		c1.659-0.094,3.457-0.192,5.357-0.257c1.901-0.075,3.906-0.161,5.979-0.209c2.074-0.053,4.217-0.102,6.394-0.124
		c2.178-0.034,4.39-0.036,6.602-0.044c2.212,0.009,4.424,0.013,6.602,0.046c2.178,0.025,4.321,0.07,6.395,0.125
		c2.074,0.048,4.079,0.137,5.979,0.21c1.901,0.063,3.699,0.164,5.357,0.256c1.659,0.081,3.18,0.189,4.528,0.285
		c1.348,0.085,2.523,0.192,3.491,0.272c0.967,0.076,1.729,0.163,2.247,0.21C240.481,113.813,240.758,113.843,240.758,113.843"/>
	<path fill="#003C6A" d="M226.865,132.472c0,0-0.289,0.04-0.83,0.114c-0.541,0.062-1.334,0.179-2.344,0.279
		c-1.01,0.107-2.236,0.249-3.643,0.364c-1.407,0.126-2.994,0.27-4.726,0.39c-3.462,0.248-7.501,0.465-11.83,0.611
		c-1.082,0.043-2.182,0.069-3.296,0.098c-1.114,0.03-2.24,0.058-3.376,0.069c-2.272,0.045-4.581,0.051-6.889,0.063
		c-2.308-0.012-4.617-0.015-6.889-0.06c-1.136-0.014-2.263-0.037-3.377-0.069c-1.113-0.029-2.213-0.053-3.295-0.097
		c-4.329-0.145-8.368-0.361-11.831-0.61c-1.731-0.122-3.318-0.264-4.725-0.392c-1.407-0.115-2.633-0.258-3.643-0.366
		c-1.01-0.101-1.804-0.217-2.345-0.281c-0.541-0.074-0.829-0.114-0.829-0.114s0.289-0.04,0.829-0.114
		c0.542-0.063,1.335-0.18,2.345-0.281c1.009-0.108,2.236-0.251,3.643-0.366c1.406-0.128,2.993-0.27,4.725-0.391
		c3.462-0.249,7.502-0.467,11.831-0.611c1.082-0.044,2.182-0.067,3.295-0.097c1.114-0.032,2.241-0.056,3.377-0.069
		c2.272-0.045,4.581-0.048,6.889-0.06c2.308,0.012,4.617,0.019,6.889,0.063c1.136,0.012,2.263,0.04,3.376,0.07
		c1.114,0.027,2.214,0.055,3.296,0.097c4.328,0.146,8.368,0.363,11.83,0.611c1.731,0.12,3.318,0.264,4.726,0.391
		c1.406,0.114,2.632,0.256,3.643,0.363c1.01,0.101,1.803,0.217,2.344,0.279C226.576,132.432,226.865,132.472,226.865,132.472"/>
	<path fill="#003C6A" d="M185.867,87.896c0,0,0.03,0.217,0.085,0.624c0.047,0.408,0.134,1.004,0.209,1.764
		c0.17,1.52,0.375,3.69,0.565,6.295c0.186,2.604,0.349,5.644,0.458,8.9c0.056,1.628,0.101,3.31,0.126,5.019
		c0.033,1.709,0.038,3.446,0.046,5.183c-0.008,1.736-0.01,3.473-0.044,5.182c-0.022,1.709-0.071,3.392-0.125,5.02
		c-0.108,3.256-0.271,6.295-0.458,8.899c-0.191,2.604-0.397,4.775-0.568,6.295c-0.076,0.76-0.163,1.356-0.21,1.764
		c-0.056,0.406-0.086,0.624-0.086,0.624s-0.03-0.218-0.085-0.624c-0.048-0.407-0.135-1.004-0.211-1.764
		c-0.17-1.52-0.376-3.69-0.567-6.295c-0.187-2.604-0.35-5.644-0.458-8.899c-0.053-1.628-0.102-3.311-0.125-5.02
		c-0.033-1.709-0.036-3.446-0.044-5.182c0.008-1.737,0.014-3.474,0.047-5.183c0.025-1.709,0.069-3.391,0.125-5.019
		c0.109-3.256,0.272-6.295,0.458-8.9c0.191-2.605,0.396-4.775,0.565-6.295c0.075-0.759,0.163-1.356,0.21-1.764
		C185.838,88.113,185.867,87.896,185.867,87.896"/>
	<path fill="#003C6A" d="M223.055,161.859c0.046,0.325,0.137,0.568,0.271,0.729c0.247,0.293,0.669,0.439,1.268,0.439
		c0.36,0,0.651-0.038,0.875-0.116c0.424-0.147,0.638-0.423,0.638-0.826c0-0.235-0.104-0.417-0.313-0.547
		c-0.208-0.124-0.538-0.236-0.989-0.334l-0.771-0.169c-0.759-0.167-1.28-0.35-1.563-0.546c-0.481-0.328-0.721-0.843-0.721-1.543
		c0-0.638,0.235-1.167,0.705-1.59c0.47-0.422,1.16-0.633,2.07-0.633c0.762,0,1.409,0.198,1.946,0.597
		c0.536,0.398,0.819,0.976,0.844,1.734h-1.431c-0.025-0.43-0.217-0.734-0.575-0.914c-0.237-0.12-0.533-0.18-0.886-0.18
		c-0.394,0-0.708,0.078-0.942,0.231c-0.235,0.155-0.351,0.372-0.351,0.649c0,0.254,0.115,0.445,0.347,0.569
		c0.148,0.085,0.464,0.183,0.947,0.296l1.251,0.295c0.548,0.129,0.958,0.302,1.233,0.518c0.424,0.335,0.637,0.82,0.637,1.455
		c0,0.651-0.252,1.191-0.755,1.623c-0.505,0.43-1.216,0.645-2.134,0.645c-0.938,0-1.677-0.212-2.213-0.636
		c-0.538-0.424-0.808-1.006-0.808-1.747L223.055,161.859"/>
	<path fill="#003C6A" d="M231.627,160.68c-0.026-0.197-0.093-0.375-0.199-0.533c-0.155-0.212-0.396-0.318-0.722-0.318
		c-0.465,0-0.784,0.23-0.955,0.691c-0.091,0.244-0.135,0.569-0.135,0.974c0,0.387,0.044,0.696,0.135,0.931
		c0.165,0.438,0.475,0.658,0.931,0.658c0.322,0,0.552-0.087,0.688-0.262c0.137-0.174,0.218-0.399,0.247-0.677h1.408
		c-0.033,0.419-0.185,0.815-0.456,1.189c-0.432,0.603-1.072,0.905-1.921,0.905c-0.849,0-1.472-0.252-1.873-0.755
		c-0.4-0.504-0.601-1.154-0.601-1.956c0-0.904,0.221-1.607,0.664-2.11c0.441-0.503,1.052-0.754,1.829-0.754
		c0.662,0,1.204,0.148,1.624,0.444c0.421,0.297,0.671,0.82,0.749,1.571L231.627,160.68"/>
	<path fill="#003C6A" d="M236.069,160.853c0.256-0.032,0.44-0.072,0.551-0.12c0.198-0.084,0.297-0.214,0.297-0.392
		c0-0.216-0.076-0.365-0.228-0.447c-0.152-0.083-0.375-0.123-0.669-0.123c-0.33,0-0.563,0.08-0.7,0.241
		c-0.098,0.119-0.163,0.28-0.196,0.483h-1.331c0.03-0.46,0.159-0.84,0.389-1.136c0.367-0.464,0.994-0.696,1.884-0.696
		c0.579,0,1.094,0.114,1.544,0.343c0.45,0.229,0.675,0.661,0.675,1.295v2.418c0,0.168,0.003,0.371,0.01,0.609
		c0.009,0.181,0.037,0.303,0.083,0.368c0.044,0.063,0.113,0.117,0.203,0.158v0.203h-1.5c-0.041-0.105-0.07-0.205-0.086-0.299
		c-0.016-0.094-0.029-0.2-0.039-0.319c-0.191,0.206-0.412,0.381-0.662,0.526c-0.297,0.172-0.634,0.257-1.011,0.257
		c-0.479,0-0.876-0.137-1.189-0.409c-0.312-0.271-0.468-0.658-0.468-1.157c0-0.648,0.252-1.117,0.755-1.408
		c0.276-0.157,0.682-0.271,1.217-0.338L236.069,160.853 M236.911,161.496c-0.089,0.055-0.178,0.1-0.268,0.133
		c-0.089,0.033-0.213,0.065-0.37,0.095l-0.313,0.058c-0.293,0.052-0.504,0.115-0.633,0.189c-0.217,0.125-0.325,0.32-0.325,0.585
		c0,0.234,0.067,0.405,0.198,0.51c0.133,0.104,0.294,0.156,0.484,0.156c0.301,0,0.578-0.086,0.832-0.261
		c0.254-0.174,0.385-0.492,0.396-0.952V161.496L236.911,161.496z"/>
	<rect x="239.517" y="156.932" fill="#003C6A" width="1.378" height="7.127"/>
	<path fill="#003C6A" d="M244.327,160.853c0.256-0.032,0.44-0.072,0.551-0.12c0.197-0.084,0.296-0.214,0.296-0.392
		c0-0.216-0.076-0.365-0.228-0.447c-0.152-0.083-0.375-0.123-0.669-0.123c-0.33,0-0.563,0.08-0.701,0.241
		c-0.098,0.119-0.163,0.28-0.196,0.483h-1.33c0.029-0.46,0.159-0.84,0.389-1.136c0.366-0.464,0.994-0.696,1.884-0.696
		c0.579,0,1.094,0.114,1.544,0.343c0.45,0.229,0.674,0.661,0.674,1.295v2.418c0,0.168,0.003,0.371,0.01,0.609
		c0.009,0.181,0.037,0.303,0.082,0.368c0.045,0.063,0.113,0.117,0.203,0.158v0.203h-1.499c-0.041-0.105-0.07-0.205-0.086-0.299
		s-0.03-0.2-0.039-0.319c-0.191,0.206-0.412,0.381-0.662,0.526c-0.297,0.172-0.635,0.257-1.011,0.257
		c-0.479,0-0.876-0.137-1.189-0.409c-0.312-0.271-0.469-0.658-0.469-1.157c0-0.648,0.252-1.117,0.755-1.408
		c0.276-0.157,0.682-0.271,1.218-0.338L244.327,160.853 M245.17,161.496c-0.089,0.055-0.178,0.1-0.268,0.133
		c-0.089,0.033-0.213,0.065-0.37,0.095l-0.313,0.058c-0.293,0.052-0.505,0.115-0.634,0.189c-0.216,0.125-0.325,0.32-0.325,0.585
		c0,0.234,0.066,0.405,0.198,0.51c0.133,0.104,0.294,0.156,0.485,0.156c0.301,0,0.578-0.086,0.832-0.261
		c0.254-0.174,0.385-0.492,0.396-0.952V161.496z"/>
	<path fill="#003C6A" d="M252.247,159.422c0.395,0.499,0.592,1.145,0.592,1.935c0,0.817-0.195,1.496-0.583,2.034
		c-0.388,0.539-0.932,0.809-1.628,0.809c-0.437,0-0.789-0.088-1.054-0.262c-0.159-0.103-0.331-0.284-0.516-0.541v0.661h-1.359
		v-7.116h1.378v2.533c0.175-0.244,0.369-0.432,0.58-0.561c0.25-0.16,0.567-0.242,0.953-0.242
		C251.307,158.672,251.852,158.922,252.247,159.422 M251.095,162.632c0.198-0.287,0.296-0.664,0.296-1.131
		c0-0.374-0.048-0.684-0.146-0.928c-0.185-0.465-0.526-0.697-1.023-0.697c-0.504,0-0.85,0.228-1.039,0.683
		c-0.098,0.241-0.146,0.555-0.146,0.938c0,0.451,0.101,0.825,0.302,1.122c0.202,0.296,0.508,0.445,0.921,0.445
		C250.618,163.062,250.898,162.919,251.095,162.632z"/>
	<rect x="253.824" y="156.932" fill="#003C6A" width="1.378" height="7.127"/>
	<path fill="#003C6A" d="M259.98,158.896c0.368,0.165,0.671,0.425,0.911,0.779c0.216,0.313,0.355,0.677,0.42,1.09
		c0.037,0.243,0.052,0.592,0.045,1.046h-3.838c0.022,0.528,0.205,0.899,0.552,1.112c0.21,0.132,0.463,0.198,0.759,0.198
		c0.315,0,0.569-0.081,0.766-0.242c0.107-0.087,0.202-0.208,0.284-0.362h1.407c-0.037,0.312-0.208,0.63-0.512,0.953
		c-0.471,0.512-1.132,0.769-1.982,0.769c-0.702,0-1.32-0.217-1.856-0.649c-0.537-0.432-0.805-1.136-0.805-2.109
		c0-0.913,0.242-1.613,0.727-2.101c0.483-0.487,1.112-0.73,1.885-0.73C259.199,158.648,259.613,158.73,259.98,158.896
		 M257.918,160.086c-0.194,0.2-0.316,0.472-0.367,0.815h2.374c-0.025-0.365-0.147-0.644-0.367-0.833
		c-0.219-0.189-0.492-0.284-0.816-0.284C258.387,159.785,258.114,159.885,257.918,160.086z"/>
	<path fill="#003C6A" d="M269.236,159.354c0.431,0.455,0.645,1.122,0.645,2.003c0,0.928-0.21,1.635-0.63,2.122
		c-0.42,0.486-0.96,0.729-1.623,0.729c-0.422,0-0.772-0.104-1.051-0.313c-0.153-0.117-0.302-0.286-0.448-0.508v2.747h-1.363v-7.346
		h1.319v0.778c0.15-0.229,0.308-0.409,0.478-0.541c0.307-0.235,0.674-0.354,1.099-0.354
		C268.281,158.672,268.807,158.9,269.236,159.354 M268.179,160.346c-0.188-0.313-0.491-0.47-0.912-0.47
		c-0.504,0-0.851,0.237-1.041,0.712c-0.097,0.251-0.146,0.57-0.146,0.957c0,0.612,0.164,1.042,0.493,1.29
		c0.195,0.146,0.426,0.218,0.694,0.218c0.388,0,0.683-0.147,0.887-0.444c0.204-0.297,0.306-0.691,0.306-1.185
		C268.46,161.017,268.366,160.658,268.179,160.346z"/>
	<path fill="#003C6A" d="M274.287,158.896c0.367,0.165,0.671,0.425,0.911,0.779c0.216,0.313,0.355,0.677,0.419,1.09
		c0.038,0.243,0.053,0.592,0.046,1.046h-3.838c0.021,0.528,0.205,0.899,0.551,1.112c0.21,0.132,0.463,0.198,0.76,0.198
		c0.314,0,0.569-0.081,0.765-0.242c0.108-0.087,0.202-0.208,0.285-0.362h1.407c-0.037,0.312-0.207,0.63-0.512,0.953
		c-0.471,0.512-1.132,0.769-1.983,0.769c-0.701,0-1.319-0.217-1.855-0.649c-0.536-0.432-0.804-1.136-0.804-2.109
		c0-0.913,0.242-1.613,0.726-2.101c0.483-0.487,1.112-0.73,1.885-0.73C273.507,158.648,273.92,158.73,274.287,158.896
		 M272.226,160.086c-0.195,0.2-0.317,0.472-0.367,0.815h2.374c-0.025-0.365-0.147-0.644-0.368-0.833
		c-0.219-0.189-0.492-0.284-0.816-0.284C272.695,159.785,272.421,159.885,272.226,160.086z"/>
	<path fill="#003C6A" d="M279.288,158.665c0.018,0.002,0.057,0.004,0.118,0.007v1.412c-0.087-0.009-0.163-0.016-0.232-0.019
		c-0.066-0.004-0.121-0.005-0.163-0.005c-0.556,0-0.927,0.18-1.117,0.542c-0.105,0.202-0.159,0.515-0.159,0.937v2.519h-1.388v-5.27
		h1.315v0.919c0.212-0.352,0.397-0.592,0.556-0.721c0.258-0.216,0.594-0.323,1.006-0.323
		C279.248,158.663,279.27,158.664,279.288,158.665"/>
	<path fill="#003C6A" d="M282.394,156.866c0.071,0.005,0.168,0.012,0.29,0.022v1.122c-0.077-0.011-0.207-0.018-0.39-0.022
		c-0.182-0.005-0.308,0.035-0.376,0.12c-0.07,0.085-0.104,0.181-0.104,0.283c0,0.104,0,0.252,0,0.445h0.903v0.972h-0.903v4.25
		h-1.368v-4.25h-0.774v-0.972h0.755v-0.339c0-0.563,0.096-0.952,0.285-1.165c0.2-0.316,0.682-0.475,1.445-0.475
		C282.245,156.859,282.324,156.862,282.394,156.866"/>
	<path fill="#003C6A" d="M287.906,163.414c-0.445,0.549-1.12,0.824-2.026,0.824s-1.581-0.275-2.026-0.824
		c-0.444-0.549-0.666-1.21-0.666-1.983c0-0.76,0.222-1.418,0.666-1.976c0.445-0.558,1.12-0.835,2.026-0.835s1.581,0.277,2.026,0.835
		c0.444,0.558,0.667,1.216,0.667,1.976C288.573,162.204,288.35,162.865,287.906,163.414 M286.803,162.652
		c0.215-0.286,0.323-0.693,0.323-1.222c0-0.527-0.108-0.934-0.323-1.22c-0.216-0.284-0.525-0.427-0.929-0.427
		s-0.713,0.143-0.93,0.427c-0.218,0.285-0.326,0.691-0.326,1.22c0,0.527,0.108,0.936,0.326,1.222c0.217,0.286,0.526,0.43,0.93,0.43
		S286.588,162.939,286.803,162.652z"/>
	<path fill="#003C6A" d="M292.487,158.665c0.018,0.002,0.057,0.004,0.119,0.007v1.412c-0.087-0.009-0.164-0.016-0.232-0.019
		c-0.067-0.004-0.122-0.005-0.164-0.005c-0.555,0-0.927,0.18-1.116,0.542c-0.106,0.202-0.159,0.515-0.159,0.937v2.519h-1.388v-5.27
		h1.315v0.919c0.211-0.352,0.396-0.592,0.556-0.721c0.257-0.216,0.593-0.323,1.006-0.323
		C292.448,158.663,292.469,158.664,292.487,158.665"/>
	<path fill="#003C6A" d="M299.988,158.809c0.226,0.09,0.43,0.247,0.614,0.473c0.147,0.185,0.248,0.41,0.3,0.677
		c0.032,0.178,0.048,0.438,0.048,0.779l-0.009,3.321h-1.412v-3.355c0-0.199-0.032-0.364-0.097-0.493
		c-0.122-0.245-0.348-0.367-0.678-0.367c-0.379,0-0.642,0.158-0.787,0.474c-0.074,0.168-0.111,0.369-0.111,0.604v3.138h-1.387
		v-3.138c0-0.312-0.033-0.54-0.098-0.682c-0.116-0.255-0.343-0.382-0.682-0.382c-0.394,0-0.657,0.127-0.793,0.382
		c-0.074,0.146-0.111,0.361-0.111,0.647v3.172h-1.397v-5.261h1.339v0.769c0.172-0.273,0.333-0.468,0.484-0.584
		c0.267-0.207,0.614-0.311,1.039-0.311c0.402,0,0.729,0.089,0.978,0.267c0.199,0.164,0.351,0.376,0.454,0.633
		c0.181-0.309,0.404-0.536,0.671-0.682c0.284-0.145,0.6-0.218,0.947-0.218C299.533,158.672,299.762,158.718,299.988,158.809"/>
	<path fill="#003C6A" d="M304.304,160.853c0.257-0.032,0.44-0.072,0.551-0.12c0.197-0.084,0.297-0.214,0.297-0.392
		c0-0.216-0.076-0.365-0.229-0.447c-0.152-0.083-0.375-0.123-0.669-0.123c-0.33,0-0.563,0.08-0.7,0.241
		c-0.099,0.119-0.163,0.28-0.196,0.483h-1.33c0.029-0.46,0.158-0.84,0.388-1.136c0.367-0.464,0.994-0.696,1.885-0.696
		c0.579,0,1.094,0.114,1.545,0.343c0.45,0.229,0.674,0.661,0.674,1.295v2.418c0,0.168,0.004,0.371,0.01,0.609
		c0.01,0.181,0.037,0.303,0.083,0.368c0.045,0.063,0.112,0.117,0.202,0.158v0.203h-1.499c-0.04-0.105-0.07-0.205-0.086-0.299
		c-0.017-0.094-0.029-0.2-0.039-0.319c-0.19,0.206-0.412,0.381-0.662,0.526c-0.297,0.172-0.634,0.257-1.011,0.257
		c-0.479,0-0.877-0.137-1.189-0.409c-0.312-0.271-0.468-0.658-0.468-1.157c0-0.648,0.251-1.117,0.755-1.408
		c0.275-0.157,0.682-0.271,1.217-0.338L304.304,160.853 M305.147,161.496c-0.089,0.055-0.178,0.1-0.268,0.133
		c-0.089,0.033-0.213,0.065-0.37,0.095l-0.313,0.058c-0.293,0.052-0.505,0.115-0.634,0.189c-0.217,0.125-0.324,0.32-0.324,0.585
		c0,0.234,0.065,0.405,0.197,0.51c0.134,0.104,0.295,0.156,0.485,0.156c0.301,0,0.577-0.086,0.831-0.261
		c0.254-0.174,0.386-0.492,0.396-0.952V161.496L305.147,161.496z"/>
	<path fill="#003C6A" d="M311.974,159.091c0.344,0.284,0.518,0.758,0.518,1.419v3.549h-1.412v-3.205c0-0.277-0.037-0.49-0.11-0.638
		c-0.135-0.271-0.391-0.406-0.768-0.406c-0.464,0-0.783,0.197-0.955,0.595c-0.09,0.209-0.135,0.477-0.135,0.802v2.854h-1.379v-5.261
		h1.335v0.769c0.177-0.271,0.344-0.466,0.501-0.585c0.283-0.213,0.64-0.319,1.074-0.319
		C311.185,158.663,311.629,158.806,311.974,159.091"/>
	<path fill="#003C6A" d="M316.926,160.68c-0.025-0.197-0.093-0.375-0.199-0.533c-0.154-0.212-0.395-0.318-0.722-0.318
		c-0.465,0-0.783,0.23-0.954,0.691c-0.092,0.244-0.137,0.569-0.137,0.974c0,0.387,0.045,0.696,0.137,0.931
		c0.164,0.438,0.475,0.658,0.931,0.658c0.321,0,0.552-0.087,0.688-0.262c0.136-0.174,0.218-0.399,0.247-0.677h1.407
		c-0.032,0.419-0.184,0.815-0.455,1.189c-0.433,0.603-1.072,0.905-1.921,0.905c-0.85,0-1.473-0.252-1.873-0.755
		c-0.4-0.504-0.601-1.154-0.601-1.956c0-0.904,0.222-1.607,0.663-2.11c0.442-0.503,1.053-0.754,1.829-0.754
		c0.662,0,1.204,0.148,1.624,0.444c0.421,0.297,0.671,0.82,0.749,1.571L316.926,160.68"/>
	<path fill="#003C6A" d="M322.714,158.896c0.368,0.165,0.672,0.425,0.911,0.779c0.217,0.313,0.355,0.677,0.42,1.09
		c0.037,0.243,0.052,0.592,0.045,1.046h-3.838c0.021,0.528,0.205,0.899,0.552,1.112c0.211,0.132,0.463,0.198,0.759,0.198
		c0.315,0,0.569-0.081,0.766-0.242c0.107-0.087,0.201-0.208,0.284-0.362h1.406c-0.037,0.312-0.208,0.63-0.511,0.953
		c-0.472,0.512-1.133,0.769-1.982,0.769c-0.702,0-1.32-0.217-1.856-0.649c-0.536-0.432-0.804-1.136-0.804-2.109
		c0-0.913,0.241-1.613,0.726-2.101c0.483-0.487,1.111-0.73,1.885-0.73C321.933,158.648,322.346,158.73,322.714,158.896
		 M320.652,160.086c-0.193,0.2-0.316,0.472-0.366,0.815h2.373c-0.024-0.365-0.146-0.644-0.367-0.833
		c-0.219-0.189-0.491-0.284-0.816-0.284C321.122,159.785,320.847,159.885,320.652,160.086z"/>
	<path fill="#003C6A" d="M333.524,158.751c0.226,0.09,0.431,0.248,0.614,0.473c0.148,0.186,0.248,0.411,0.302,0.678
		c0.031,0.178,0.047,0.436,0.047,0.779l-0.009,3.32h-1.413v-3.354c0-0.2-0.032-0.364-0.096-0.493
		c-0.123-0.245-0.348-0.368-0.678-0.368c-0.381,0-0.643,0.158-0.789,0.475c-0.074,0.168-0.111,0.368-0.111,0.604v3.138h-1.387
		v-3.138c0-0.312-0.031-0.54-0.096-0.681c-0.116-0.255-0.344-0.383-0.684-0.383c-0.393,0-0.657,0.128-0.792,0.383
		c-0.073,0.145-0.11,0.36-0.11,0.647v3.171h-1.397v-5.261h1.338v0.77c0.172-0.274,0.333-0.469,0.485-0.586
		c0.267-0.205,0.613-0.31,1.038-0.31c0.402,0,0.729,0.09,0.978,0.268c0.198,0.163,0.351,0.375,0.453,0.633
		c0.181-0.31,0.404-0.537,0.672-0.683c0.284-0.145,0.601-0.218,0.948-0.218C333.07,158.614,333.3,158.66,333.524,158.751"/>
	<path fill="#003C6A" d="M339.187,158.838c0.367,0.165,0.671,0.425,0.911,0.78c0.216,0.312,0.355,0.676,0.419,1.089
		c0.037,0.243,0.053,0.592,0.046,1.046h-3.839c0.022,0.529,0.206,0.9,0.552,1.113c0.211,0.132,0.464,0.197,0.76,0.197
		c0.314,0,0.569-0.08,0.765-0.241c0.107-0.087,0.202-0.209,0.285-0.362h1.405c-0.036,0.312-0.207,0.629-0.511,0.951
		c-0.471,0.513-1.132,0.77-1.982,0.77c-0.701,0-1.319-0.217-1.855-0.648c-0.537-0.433-0.805-1.137-0.805-2.11
		c0-0.913,0.242-1.613,0.726-2.1c0.484-0.488,1.112-0.731,1.885-0.731C338.406,158.591,338.82,158.674,339.187,158.838
		 M337.126,160.028c-0.194,0.2-0.317,0.473-0.366,0.815h2.373c-0.024-0.365-0.147-0.643-0.367-0.832s-0.491-0.284-0.816-0.284
		C337.594,159.728,337.321,159.827,337.126,160.028z"/>
	<path fill="#003C6A" d="M343.347,160.796c0.257-0.033,0.44-0.072,0.552-0.121c0.197-0.084,0.297-0.214,0.297-0.392
		c0-0.217-0.076-0.365-0.228-0.448c-0.153-0.082-0.376-0.122-0.671-0.122c-0.329,0-0.562,0.081-0.7,0.241
		c-0.099,0.119-0.163,0.281-0.196,0.484h-1.329c0.028-0.461,0.158-0.84,0.388-1.136c0.367-0.465,0.994-0.697,1.885-0.697
		c0.578,0,1.093,0.115,1.545,0.343c0.449,0.229,0.674,0.661,0.674,1.296v2.418c0,0.168,0.004,0.37,0.01,0.609
		c0.01,0.18,0.037,0.303,0.083,0.367c0.044,0.063,0.112,0.118,0.203,0.159v0.203h-1.5c-0.041-0.105-0.071-0.206-0.087-0.299
		c-0.016-0.095-0.028-0.201-0.039-0.32c-0.19,0.206-0.411,0.382-0.661,0.527c-0.298,0.171-0.635,0.257-1.012,0.257
		c-0.479,0-0.876-0.138-1.188-0.409c-0.313-0.272-0.469-0.658-0.469-1.159c0-0.647,0.252-1.117,0.755-1.406
		c0.275-0.158,0.682-0.271,1.218-0.339L343.347,160.796 M344.19,161.438c-0.088,0.056-0.177,0.1-0.268,0.134
		c-0.089,0.033-0.212,0.064-0.369,0.094l-0.314,0.059c-0.293,0.051-0.504,0.114-0.633,0.188c-0.217,0.126-0.325,0.32-0.325,0.585
		c0,0.235,0.065,0.405,0.199,0.509c0.132,0.106,0.294,0.158,0.483,0.158c0.301,0,0.577-0.087,0.831-0.261
		c0.255-0.175,0.386-0.492,0.396-0.953V161.438L344.19,161.438z"/>
	<path fill="#003C6A" d="M347.837,162.319c0.028,0.244,0.092,0.418,0.189,0.521c0.172,0.184,0.488,0.275,0.951,0.275
		c0.272,0,0.489-0.039,0.65-0.12c0.159-0.081,0.239-0.201,0.239-0.362c0-0.155-0.064-0.272-0.193-0.354s-0.609-0.219-1.441-0.416
		c-0.599-0.147-1.021-0.333-1.267-0.556c-0.244-0.219-0.366-0.535-0.366-0.947c0-0.487,0.19-0.905,0.573-1.255
		c0.384-0.35,0.922-0.524,1.616-0.524c0.659,0,1.195,0.131,1.611,0.395c0.414,0.262,0.652,0.716,0.715,1.361h-1.379
		c-0.019-0.178-0.068-0.318-0.149-0.422c-0.152-0.187-0.411-0.279-0.776-0.279c-0.301,0-0.515,0.045-0.643,0.139
		c-0.128,0.095-0.191,0.204-0.191,0.33c0,0.157,0.068,0.271,0.203,0.343c0.137,0.074,0.616,0.201,1.438,0.382
		c0.55,0.129,0.962,0.324,1.236,0.585c0.27,0.265,0.405,0.595,0.405,0.99c0,0.523-0.194,0.948-0.584,1.279
		c-0.389,0.33-0.99,0.496-1.804,0.496c-0.831,0-1.443-0.175-1.839-0.524c-0.396-0.35-0.594-0.796-0.594-1.337H347.837"/>
	<path fill="#003C6A" d="M353.648,158.73v3.178c0,0.3,0.035,0.524,0.105,0.676c0.124,0.268,0.37,0.401,0.736,0.401
		c0.468,0,0.788-0.19,0.961-0.569c0.091-0.206,0.136-0.479,0.136-0.818v-2.867h1.396v5.271h-1.34v-0.744
		c-0.012,0.017-0.044,0.064-0.096,0.146c-0.051,0.081-0.112,0.151-0.183,0.213c-0.215,0.192-0.424,0.325-0.625,0.396
		c-0.201,0.071-0.437,0.106-0.706,0.106c-0.778,0-1.302-0.281-1.572-0.841c-0.15-0.309-0.226-0.766-0.226-1.368v-3.178H353.648"/>
	<path fill="#003C6A" d="M361.25,158.608c0.018,0.002,0.058,0.004,0.119,0.007v1.413c-0.087-0.01-0.164-0.018-0.231-0.021
		c-0.068-0.003-0.123-0.005-0.164-0.005c-0.556,0-0.928,0.18-1.117,0.542c-0.106,0.202-0.16,0.515-0.16,0.938v2.52h-1.387v-5.271
		h1.314v0.92c0.212-0.353,0.398-0.592,0.556-0.722c0.259-0.216,0.594-0.323,1.006-0.323
		C361.211,158.605,361.232,158.606,361.25,158.608"/>
	<path fill="#003C6A" d="M365.61,158.838c0.368,0.165,0.672,0.425,0.911,0.78c0.217,0.312,0.355,0.676,0.42,1.089
		c0.037,0.243,0.051,0.592,0.045,1.046h-3.838c0.021,0.529,0.204,0.9,0.551,1.113c0.211,0.132,0.464,0.197,0.76,0.197
		c0.315,0,0.569-0.08,0.766-0.241c0.107-0.087,0.201-0.209,0.284-0.362h1.406c-0.037,0.312-0.208,0.629-0.512,0.951
		c-0.471,0.513-1.132,0.77-1.982,0.77c-0.701,0-1.319-0.217-1.855-0.648c-0.537-0.433-0.804-1.137-0.804-2.11
		c0-0.913,0.241-1.613,0.726-2.1c0.483-0.488,1.111-0.731,1.884-0.731C364.83,158.591,365.243,158.674,365.61,158.838
		 M363.549,160.028c-0.194,0.2-0.316,0.473-0.366,0.815h2.373c-0.024-0.365-0.146-0.643-0.367-0.832
		c-0.22-0.189-0.492-0.284-0.816-0.284C364.018,159.728,363.744,159.827,363.549,160.028z"/>
	<path fill="#003C6A" d="M374.259,158.751c0.226,0.09,0.431,0.248,0.614,0.473c0.148,0.186,0.248,0.411,0.301,0.678
		c0.032,0.178,0.048,0.436,0.048,0.779l-0.01,3.32H373.8v-3.354c0-0.2-0.032-0.364-0.097-0.493
		c-0.122-0.245-0.348-0.368-0.678-0.368c-0.38,0-0.642,0.158-0.787,0.475c-0.074,0.168-0.111,0.368-0.111,0.604v3.138h-1.387v-3.138
		c0-0.312-0.033-0.54-0.098-0.681c-0.115-0.255-0.342-0.383-0.682-0.383c-0.394,0-0.657,0.128-0.793,0.383
		c-0.074,0.145-0.11,0.36-0.11,0.647v3.171h-1.397v-5.261h1.339v0.77c0.171-0.274,0.332-0.469,0.483-0.586
		c0.268-0.205,0.614-0.31,1.04-0.31c0.402,0,0.728,0.09,0.977,0.268c0.199,0.163,0.351,0.375,0.454,0.633
		c0.18-0.31,0.404-0.537,0.671-0.683c0.285-0.145,0.601-0.218,0.948-0.218C373.803,158.614,374.033,158.66,374.259,158.751"/>
	<path fill="#003C6A" d="M379.922,158.838c0.368,0.165,0.671,0.425,0.91,0.78c0.217,0.312,0.356,0.676,0.42,1.089
		c0.037,0.243,0.053,0.592,0.046,1.046h-3.839c0.022,0.529,0.206,0.9,0.552,1.113c0.211,0.132,0.464,0.197,0.76,0.197
		c0.314,0,0.569-0.08,0.765-0.241c0.107-0.087,0.202-0.209,0.284-0.362h1.407c-0.037,0.312-0.209,0.629-0.511,0.951
		c-0.473,0.513-1.133,0.77-1.983,0.77c-0.701,0-1.32-0.217-1.855-0.648c-0.536-0.433-0.805-1.137-0.805-2.11
		c0-0.913,0.241-1.613,0.726-2.1c0.484-0.488,1.112-0.731,1.885-0.731C379.14,158.591,379.554,158.674,379.922,158.838
		 M377.86,160.028c-0.193,0.2-0.316,0.473-0.367,0.815h2.375c-0.026-0.365-0.146-0.643-0.367-0.832
		c-0.22-0.189-0.492-0.284-0.817-0.284C378.33,159.728,378.055,159.827,377.86,160.028z"/>
	<path fill="#003C6A" d="M386.244,159.033c0.346,0.285,0.518,0.759,0.518,1.42v3.548h-1.412v-3.205c0-0.277-0.037-0.49-0.11-0.638
		c-0.134-0.271-0.39-0.405-0.768-0.405c-0.464,0-0.782,0.197-0.955,0.595c-0.09,0.209-0.134,0.476-0.134,0.802v2.853h-1.378v-5.261
		h1.334v0.769c0.176-0.271,0.343-0.466,0.501-0.585c0.282-0.212,0.641-0.319,1.073-0.319
		C385.456,158.605,385.899,158.749,386.244,159.033"/>
	<path fill="#003C6A" d="M387.502,159.761v-0.98h0.734v-1.471h1.364v1.471h0.854v0.98H389.6v2.785c0,0.216,0.026,0.351,0.082,0.403
		c0.055,0.055,0.222,0.08,0.503,0.08c0.042,0,0.086-0.001,0.133-0.003c0.047-0.001,0.093-0.003,0.138-0.007v1.031l-0.651,0.023
		c-0.652,0.022-1.097-0.09-1.335-0.339c-0.154-0.157-0.232-0.402-0.232-0.73v-3.244H387.502"/>
	<path fill="#003C6A" d="M221.993,168.771h1.398v1.272h-1.398V168.771z M221.993,170.671h1.398v5.271h-1.398V170.671z"/>
	<path fill="#003C6A" d="M228.975,170.974c0.344,0.285,0.517,0.758,0.517,1.419v3.549h-1.412v-3.205c0-0.277-0.037-0.49-0.11-0.638
		c-0.134-0.271-0.39-0.406-0.768-0.406c-0.464,0-0.783,0.198-0.956,0.594c-0.09,0.21-0.134,0.478-0.134,0.804v2.852h-1.378v-5.261
		h1.334v0.769c0.177-0.271,0.344-0.466,0.501-0.585c0.282-0.212,0.64-0.319,1.074-0.319
		C228.186,170.545,228.629,170.688,228.975,170.974"/>
	<path fill="#003C6A" d="M232.953,168.749c0.071,0.006,0.167,0.012,0.29,0.021v1.122c-0.077-0.009-0.207-0.017-0.389-0.021
		c-0.181-0.006-0.308,0.035-0.377,0.121c-0.069,0.084-0.104,0.179-0.104,0.282s0,0.252,0,0.445h0.904v0.972h-0.904v4.25h-1.369
		v-4.25h-0.773v-0.972h0.754v-0.339c0-0.563,0.095-0.952,0.285-1.165c0.2-0.316,0.682-0.475,1.445-0.475
		C232.804,168.742,232.884,168.744,232.953,168.749"/>
	<path fill="#003C6A" d="M236.998,170.548c0.018,0.002,0.057,0.004,0.118,0.007v1.412c-0.087-0.01-0.164-0.017-0.232-0.02
		c-0.067-0.003-0.122-0.005-0.164-0.005c-0.555,0-0.927,0.181-1.117,0.542c-0.106,0.203-0.16,0.516-0.16,0.938v2.52h-1.388v-5.271
		h1.315v0.919c0.212-0.353,0.397-0.592,0.556-0.721c0.257-0.216,0.593-0.324,1.006-0.324
		C236.958,170.545,236.98,170.546,236.998,170.548"/>
	<path fill="#003C6A" d="M240.011,172.735c0.256-0.032,0.439-0.072,0.55-0.12c0.198-0.084,0.297-0.215,0.297-0.393
		c0-0.216-0.076-0.365-0.228-0.447c-0.152-0.081-0.375-0.123-0.669-0.123c-0.33,0-0.563,0.081-0.7,0.241
		c-0.099,0.12-0.163,0.281-0.196,0.484h-1.33c0.029-0.461,0.158-0.839,0.388-1.136c0.367-0.464,0.994-0.696,1.884-0.696
		c0.58,0,1.094,0.114,1.545,0.343c0.45,0.229,0.674,0.661,0.674,1.296v2.417c0,0.168,0.004,0.371,0.011,0.609
		c0.009,0.18,0.037,0.303,0.082,0.367c0.045,0.065,0.113,0.118,0.203,0.16v0.203h-1.499c-0.042-0.106-0.07-0.206-0.087-0.3
		c-0.016-0.095-0.029-0.2-0.038-0.32c-0.191,0.206-0.412,0.382-0.662,0.527c-0.297,0.171-0.635,0.257-1.011,0.257
		c-0.479,0-0.876-0.137-1.189-0.409c-0.313-0.271-0.469-0.658-0.469-1.158c0-0.647,0.252-1.116,0.755-1.406
		c0.276-0.159,0.682-0.271,1.217-0.339L240.011,172.735 M240.854,173.379c-0.088,0.055-0.177,0.099-0.268,0.133
		c-0.089,0.034-0.213,0.064-0.37,0.095l-0.313,0.059c-0.293,0.051-0.504,0.113-0.633,0.188c-0.217,0.126-0.325,0.321-0.325,0.586
		c0,0.235,0.066,0.405,0.198,0.509c0.133,0.105,0.294,0.157,0.485,0.157c0.301,0,0.577-0.086,0.832-0.261
		c0.254-0.174,0.385-0.492,0.395-0.952V173.379L240.854,173.379z"/>
	<path fill="#003C6A" d="M244.499,174.258c0.029,0.246,0.092,0.42,0.189,0.522c0.172,0.184,0.489,0.276,0.952,0.276
		c0.272,0,0.489-0.04,0.649-0.121c0.16-0.081,0.24-0.202,0.24-0.362c0-0.154-0.064-0.272-0.194-0.353
		c-0.128-0.081-0.609-0.22-1.441-0.417c-0.599-0.148-1.021-0.332-1.266-0.556c-0.245-0.218-0.367-0.534-0.367-0.947
		c0-0.486,0.191-0.904,0.573-1.255c0.384-0.35,0.921-0.524,1.616-0.524c0.659,0,1.196,0.132,1.611,0.395
		c0.415,0.263,0.653,0.717,0.714,1.361h-1.378c-0.02-0.177-0.069-0.317-0.15-0.421c-0.152-0.188-0.411-0.28-0.776-0.28
		c-0.301,0-0.515,0.046-0.643,0.14c-0.128,0.095-0.191,0.204-0.191,0.329c0,0.158,0.067,0.271,0.204,0.343
		c0.136,0.074,0.615,0.201,1.438,0.382c0.549,0.129,0.961,0.324,1.235,0.585c0.271,0.265,0.406,0.595,0.406,0.991
		c0,0.522-0.194,0.948-0.584,1.278c-0.389,0.331-0.99,0.497-1.805,0.497c-0.83,0-1.442-0.176-1.838-0.525s-0.594-0.795-0.594-1.337
		L244.499,174.258"/>
	<path fill="#003C6A" d="M248.397,171.701v-0.981h0.735v-1.471h1.363v1.471h0.856v0.981h-0.856v2.785
		c0,0.215,0.028,0.351,0.083,0.402c0.055,0.055,0.222,0.081,0.503,0.081c0.042,0,0.086-0.001,0.133-0.003s0.092-0.004,0.138-0.007
		v1.03l-0.652,0.023c-0.652,0.022-1.097-0.09-1.334-0.339c-0.154-0.157-0.232-0.401-0.232-0.729v-3.245H248.397"/>
	<path fill="#003C6A" d="M255.163,170.548c0.018,0.002,0.057,0.004,0.118,0.007v1.412c-0.086-0.01-0.164-0.017-0.232-0.02
		c-0.067-0.003-0.122-0.005-0.164-0.005c-0.555,0-0.927,0.181-1.117,0.542c-0.107,0.203-0.16,0.516-0.16,0.938v2.52h-1.387v-5.271
		h1.315v0.919c0.212-0.353,0.397-0.592,0.556-0.721c0.258-0.216,0.593-0.324,1.005-0.324
		C255.123,170.545,255.145,170.546,255.163,170.548"/>
	<path fill="#003C6A" d="M257.462,170.671v3.177c0,0.301,0.035,0.525,0.106,0.677c0.125,0.268,0.37,0.4,0.736,0.4
		c0.468,0,0.789-0.189,0.962-0.569c0.09-0.207,0.136-0.479,0.136-0.817v-2.867h1.396v5.271h-1.339v-0.745
		c-0.013,0.017-0.045,0.065-0.096,0.146c-0.051,0.081-0.113,0.151-0.183,0.213c-0.215,0.193-0.424,0.325-0.625,0.396
		c-0.201,0.07-0.437,0.106-0.707,0.106c-0.778,0-1.302-0.281-1.572-0.842c-0.151-0.309-0.226-0.766-0.226-1.368v-3.177H257.462"/>
	<path fill="#003C6A" d="M265.289,172.562c-0.025-0.197-0.092-0.375-0.199-0.532c-0.154-0.213-0.395-0.32-0.721-0.32
		c-0.465,0-0.783,0.231-0.955,0.692c-0.091,0.244-0.135,0.568-0.135,0.974c0,0.386,0.044,0.696,0.135,0.931
		c0.165,0.438,0.475,0.657,0.931,0.657c0.322,0,0.552-0.086,0.687-0.261c0.137-0.174,0.219-0.399,0.248-0.677h1.407
		c-0.032,0.419-0.184,0.815-0.455,1.189c-0.433,0.603-1.072,0.904-1.922,0.904c-0.848,0-1.472-0.251-1.873-0.754
		c-0.4-0.504-0.6-1.155-0.6-1.956c0-0.904,0.221-1.607,0.663-2.111c0.441-0.503,1.052-0.754,1.829-0.754
		c0.662,0,1.204,0.148,1.624,0.445c0.421,0.297,0.671,0.82,0.748,1.571L265.289,172.562"/>
	<path fill="#003C6A" d="M267.103,171.701v-0.981h0.735v-1.471h1.363v1.471h0.856v0.981H269.2v2.785
		c0,0.215,0.028,0.351,0.083,0.402c0.055,0.055,0.222,0.081,0.503,0.081c0.042,0,0.086-0.001,0.132-0.003
		c0.047-0.002,0.093-0.004,0.138-0.007v1.03l-0.652,0.023c-0.652,0.022-1.096-0.09-1.334-0.339
		c-0.155-0.157-0.232-0.401-0.232-0.729v-3.245H267.103"/>
	<path fill="#003C6A" d="M272.315,170.671v3.177c0,0.301,0.035,0.525,0.106,0.677c0.124,0.268,0.37,0.4,0.736,0.4
		c0.468,0,0.789-0.189,0.962-0.569c0.09-0.207,0.135-0.479,0.135-0.817v-2.867h1.397v5.271h-1.339v-0.745
		c-0.013,0.017-0.045,0.065-0.097,0.146c-0.051,0.081-0.112,0.151-0.183,0.213c-0.215,0.193-0.424,0.325-0.625,0.396
		c-0.201,0.07-0.436,0.106-0.706,0.106c-0.778,0-1.302-0.281-1.572-0.842c-0.151-0.309-0.226-0.766-0.226-1.368v-3.177H272.315"/>
	<path fill="#003C6A" d="M279.918,170.548c0.018,0.002,0.058,0.004,0.118,0.007v1.412c-0.086-0.01-0.164-0.017-0.231-0.02
		s-0.122-0.005-0.164-0.005c-0.555,0-0.927,0.181-1.116,0.542c-0.107,0.203-0.16,0.516-0.16,0.938v2.52h-1.387v-5.271h1.314v0.919
		c0.212-0.353,0.397-0.592,0.556-0.721c0.258-0.216,0.594-0.324,1.006-0.324C279.878,170.545,279.9,170.546,279.918,170.548"/>
	<path fill="#003C6A" d="M284.278,170.778c0.367,0.164,0.671,0.424,0.911,0.779c0.216,0.313,0.355,0.677,0.42,1.089
		c0.036,0.243,0.051,0.592,0.045,1.046h-3.839c0.022,0.529,0.205,0.9,0.552,1.113c0.211,0.132,0.463,0.197,0.76,0.197
		c0.314,0,0.569-0.08,0.765-0.241c0.107-0.087,0.202-0.208,0.285-0.362h1.406c-0.037,0.312-0.208,0.63-0.511,0.952
		c-0.472,0.513-1.133,0.77-1.983,0.77c-0.702,0-1.32-0.217-1.856-0.649c-0.536-0.432-0.804-1.136-0.804-2.11
		c0-0.912,0.242-1.612,0.726-2.1c0.484-0.488,1.112-0.73,1.885-0.73C283.497,170.531,283.911,170.613,284.278,170.778
		 M282.217,171.968c-0.194,0.201-0.316,0.473-0.367,0.816h2.374c-0.025-0.366-0.146-0.644-0.367-0.833
		c-0.22-0.189-0.492-0.284-0.816-0.284C282.686,171.667,282.412,171.768,282.217,171.968z"/>
	<path fill="#003C6A" d="M290.793,168.734c0.07,0.006,0.166,0.012,0.289,0.022v1.122c-0.078-0.011-0.207-0.018-0.39-0.022
		c-0.181-0.006-0.307,0.035-0.376,0.121c-0.071,0.084-0.104,0.179-0.104,0.282s0,0.252,0,0.445h0.903v0.972h-0.903v4.25h-1.368
		v-4.25h-0.773v-0.972h0.755v-0.339c0-0.563,0.094-0.952,0.283-1.165c0.2-0.316,0.684-0.475,1.447-0.475
		C290.642,168.728,290.721,168.729,290.793,168.734"/>
	<path fill="#003C6A" d="M296.303,175.282c-0.445,0.549-1.12,0.823-2.026,0.823c-0.905,0-1.58-0.274-2.025-0.823
		c-0.445-0.55-0.667-1.21-0.667-1.983c0-0.76,0.222-1.418,0.667-1.976c0.445-0.557,1.12-0.836,2.025-0.836
		c0.906,0,1.581,0.279,2.026,0.836c0.444,0.558,0.667,1.216,0.667,1.976C296.97,174.071,296.748,174.732,296.303,175.282
		 M295.201,174.521c0.216-0.286,0.324-0.693,0.324-1.222s-0.108-0.934-0.324-1.22c-0.216-0.284-0.524-0.427-0.928-0.427
		s-0.713,0.142-0.931,0.427s-0.326,0.691-0.326,1.22s0.108,0.936,0.326,1.222s0.527,0.43,0.931,0.43
		S294.985,174.807,295.201,174.521z"/>
	<path fill="#003C6A" d="M300.885,170.533c0.018,0.001,0.057,0.005,0.119,0.007v1.413c-0.088-0.011-0.164-0.018-0.232-0.021
		c-0.066-0.003-0.121-0.005-0.164-0.005c-0.555,0-0.927,0.181-1.117,0.542c-0.105,0.203-0.159,0.516-0.159,0.938v2.519h-1.388
		v-5.271h1.315v0.919c0.212-0.352,0.398-0.591,0.556-0.721c0.258-0.216,0.594-0.323,1.006-0.323
		C300.844,170.53,300.867,170.532,300.885,170.533"/>
	<path fill="#003C6A" d="M308.993,171.223c0.432,0.454,0.646,1.121,0.646,2.002c0,0.928-0.211,1.635-0.63,2.121
		c-0.421,0.487-0.961,0.73-1.623,0.73c-0.422,0-0.772-0.104-1.052-0.314c-0.152-0.116-0.302-0.285-0.448-0.508v2.747h-1.362v-7.345
		h1.318v0.778c0.15-0.229,0.309-0.41,0.479-0.542c0.307-0.235,0.674-0.353,1.099-0.353
		C308.039,170.54,308.564,170.768,308.993,171.223 M307.936,172.214c-0.188-0.312-0.49-0.469-0.911-0.469
		c-0.505,0-0.851,0.236-1.04,0.711c-0.098,0.25-0.146,0.569-0.146,0.956c0,0.613,0.164,1.043,0.493,1.291
		c0.195,0.146,0.427,0.218,0.693,0.218c0.388,0,0.683-0.148,0.887-0.444c0.204-0.297,0.306-0.691,0.306-1.185
		C308.218,172.885,308.123,172.526,307.936,172.214z"/>
	<path fill="#003C6A" d="M312.697,172.721c0.257-0.032,0.44-0.071,0.551-0.12c0.198-0.085,0.297-0.215,0.297-0.392
		c0-0.217-0.075-0.365-0.228-0.448c-0.153-0.081-0.376-0.123-0.67-0.123c-0.33,0-0.562,0.082-0.7,0.242
		c-0.099,0.119-0.163,0.28-0.196,0.483h-1.33c0.029-0.461,0.158-0.839,0.389-1.137c0.366-0.464,0.993-0.695,1.885-0.695
		c0.578,0,1.093,0.114,1.544,0.343c0.45,0.229,0.674,0.661,0.674,1.295v2.418c0,0.168,0.004,0.371,0.011,0.609
		c0.009,0.18,0.037,0.303,0.082,0.368c0.045,0.064,0.113,0.117,0.203,0.158v0.204h-1.499c-0.041-0.106-0.071-0.207-0.087-0.3
		c-0.017-0.094-0.029-0.2-0.039-0.319c-0.19,0.205-0.411,0.381-0.661,0.526c-0.298,0.171-0.635,0.257-1.012,0.257
		c-0.479,0-0.876-0.136-1.189-0.409c-0.312-0.272-0.469-0.658-0.469-1.158c0-0.648,0.253-1.116,0.756-1.407
		c0.275-0.158,0.682-0.271,1.217-0.338L312.697,172.721 M313.54,173.363c-0.088,0.056-0.178,0.1-0.268,0.134
		c-0.089,0.034-0.212,0.064-0.37,0.095l-0.313,0.058c-0.293,0.052-0.504,0.114-0.633,0.188c-0.218,0.126-0.325,0.32-0.325,0.586
		c0,0.235,0.065,0.405,0.198,0.509c0.133,0.105,0.294,0.157,0.484,0.157c0.301,0,0.577-0.086,0.831-0.261
		c0.255-0.174,0.385-0.492,0.396-0.953V173.363z"/>
	<path fill="#003C6A" d="M319.045,170.533c0.018,0.001,0.057,0.005,0.118,0.007v1.413c-0.087-0.011-0.163-0.018-0.232-0.021
		c-0.066-0.003-0.121-0.005-0.163-0.005c-0.556,0-0.927,0.181-1.117,0.542c-0.106,0.203-0.159,0.516-0.159,0.938v2.519h-1.388
		v-5.271h1.315v0.919c0.212-0.352,0.397-0.591,0.556-0.721c0.258-0.216,0.593-0.323,1.006-0.323
		C319.005,170.53,319.027,170.532,319.045,170.533"/>
	<path fill="#003C6A" d="M322.058,172.721c0.256-0.032,0.439-0.071,0.55-0.12c0.198-0.085,0.298-0.215,0.298-0.392
		c0-0.217-0.076-0.365-0.229-0.448c-0.152-0.081-0.375-0.123-0.669-0.123c-0.33,0-0.563,0.082-0.7,0.242
		c-0.1,0.119-0.164,0.28-0.196,0.483h-1.331c0.029-0.461,0.159-0.839,0.389-1.137c0.367-0.464,0.994-0.695,1.884-0.695
		c0.58,0,1.095,0.114,1.545,0.343s0.675,0.661,0.675,1.295v2.418c0,0.168,0.003,0.371,0.01,0.609
		c0.009,0.18,0.037,0.303,0.082,0.368c0.046,0.064,0.113,0.117,0.203,0.158v0.204h-1.499c-0.041-0.106-0.07-0.207-0.087-0.3
		c-0.016-0.094-0.029-0.2-0.038-0.319c-0.191,0.205-0.413,0.381-0.662,0.526c-0.297,0.171-0.635,0.257-1.011,0.257
		c-0.48,0-0.877-0.136-1.189-0.409c-0.312-0.272-0.47-0.658-0.47-1.158c0-0.648,0.253-1.116,0.756-1.407
		c0.275-0.158,0.683-0.271,1.218-0.338L322.058,172.721 M322.9,173.363c-0.088,0.056-0.177,0.1-0.267,0.134
		c-0.089,0.034-0.213,0.064-0.37,0.095l-0.313,0.058c-0.294,0.052-0.505,0.114-0.634,0.188c-0.217,0.126-0.325,0.32-0.325,0.586
		c0,0.235,0.066,0.405,0.198,0.509c0.133,0.105,0.294,0.157,0.485,0.157c0.301,0,0.577-0.086,0.831-0.261
		c0.254-0.174,0.385-0.492,0.396-0.953L322.9,173.363L322.9,173.363z"/>
	<rect x="325.506" y="168.8" fill="#003C6A" width="1.379" height="7.127"/>
	<rect x="328.258" y="168.8" fill="#003C6A" width="1.378" height="7.127"/>
	<path fill="#003C6A" d="M334.415,170.763c0.367,0.165,0.671,0.425,0.91,0.78c0.216,0.313,0.355,0.677,0.419,1.09
		c0.037,0.242,0.053,0.591,0.046,1.046h-3.839c0.022,0.528,0.206,0.899,0.552,1.112c0.211,0.132,0.464,0.197,0.76,0.197
		c0.314,0,0.569-0.08,0.765-0.241c0.108-0.087,0.202-0.208,0.285-0.362h1.406c-0.037,0.312-0.208,0.63-0.511,0.952
		c-0.472,0.513-1.133,0.769-1.983,0.769c-0.701,0-1.319-0.216-1.855-0.648c-0.536-0.432-0.805-1.135-0.805-2.11
		c0-0.912,0.242-1.612,0.726-2.1c0.484-0.487,1.112-0.73,1.885-0.73C333.634,170.517,334.047,170.599,334.415,170.763
		 M332.352,171.954c-0.193,0.2-0.317,0.472-0.366,0.815h2.374c-0.025-0.366-0.147-0.644-0.368-0.832
		c-0.22-0.19-0.491-0.285-0.816-0.285C332.821,171.652,332.548,171.753,332.352,171.954z"/>
	<rect x="336.515" y="168.8" fill="#003C6A" width="1.378" height="7.127"/>
	<path fill="#003C6A" d="M345.142,172.547c-0.027-0.197-0.093-0.374-0.2-0.532c-0.155-0.213-0.395-0.319-0.722-0.319
		c-0.466,0-0.783,0.23-0.955,0.691c-0.091,0.245-0.136,0.569-0.136,0.975c0,0.386,0.045,0.695,0.136,0.93
		c0.165,0.439,0.475,0.658,0.931,0.658c0.323,0,0.553-0.087,0.688-0.262c0.137-0.174,0.218-0.398,0.247-0.677h1.408
		c-0.033,0.42-0.185,0.816-0.456,1.19c-0.433,0.602-1.073,0.903-1.922,0.903c-0.848,0-1.472-0.251-1.872-0.754s-0.6-1.155-0.6-1.956
		c0-0.903,0.221-1.606,0.663-2.11c0.441-0.503,1.052-0.754,1.828-0.754c0.662,0,1.203,0.148,1.624,0.445
		c0.422,0.297,0.671,0.82,0.748,1.571H345.142"/>
	<path fill="#003C6A" d="M351.891,175.282c-0.445,0.549-1.121,0.823-2.026,0.823c-0.906,0-1.581-0.274-2.026-0.823
		c-0.444-0.55-0.667-1.21-0.667-1.983c0-0.76,0.223-1.418,0.667-1.976c0.445-0.557,1.12-0.836,2.026-0.836
		c0.905,0,1.581,0.279,2.026,0.836c0.443,0.558,0.667,1.216,0.667,1.976C352.558,174.071,352.335,174.732,351.891,175.282
		 M350.788,174.521c0.217-0.286,0.325-0.693,0.325-1.222s-0.108-0.934-0.325-1.22c-0.215-0.284-0.524-0.427-0.928-0.427
		c-0.402,0-0.713,0.142-0.93,0.427c-0.218,0.285-0.326,0.691-0.326,1.22s0.108,0.936,0.326,1.222c0.217,0.286,0.527,0.43,0.93,0.43
		C350.263,174.95,350.573,174.807,350.788,174.521z"/>
	<path fill="#003C6A" d="M356.339,170.741c0.248,0.141,0.45,0.335,0.604,0.583v-2.515h1.397v7.117h-1.34v-0.73
		c-0.195,0.313-0.42,0.541-0.671,0.681c-0.252,0.143-0.564,0.214-0.938,0.214c-0.615,0-1.133-0.25-1.554-0.747
		c-0.421-0.498-0.632-1.138-0.632-1.917c0-0.899,0.208-1.607,0.622-2.123c0.413-0.516,0.967-0.773,1.66-0.773
		C355.807,170.53,356.091,170.601,356.339,170.741 M356.677,174.495c0.203-0.29,0.304-0.666,0.304-1.127
		c0-0.644-0.163-1.105-0.487-1.383c-0.199-0.167-0.432-0.251-0.696-0.251c-0.403,0-0.699,0.152-0.888,0.457
		c-0.188,0.304-0.283,0.683-0.283,1.133c0,0.486,0.097,0.876,0.288,1.168s0.482,0.438,0.872,0.438
		C356.178,174.932,356.474,174.786,356.677,174.495z"/>
	<path fill="#003C6A" d="M363.027,170.763c0.367,0.165,0.67,0.425,0.91,0.78c0.216,0.313,0.356,0.677,0.42,1.09
		c0.036,0.242,0.052,0.591,0.045,1.046h-3.839c0.022,0.528,0.206,0.899,0.552,1.112c0.211,0.132,0.464,0.197,0.76,0.197
		c0.314,0,0.569-0.08,0.765-0.241c0.107-0.087,0.202-0.208,0.285-0.362h1.407c-0.037,0.312-0.209,0.63-0.512,0.952
		c-0.473,0.513-1.133,0.769-1.982,0.769c-0.701,0-1.321-0.216-1.856-0.648c-0.537-0.432-0.805-1.135-0.805-2.11
		c0-0.912,0.242-1.612,0.727-2.1c0.483-0.487,1.111-0.73,1.884-0.73C362.246,170.517,362.66,170.599,363.027,170.763
		 M360.965,171.954c-0.193,0.2-0.316,0.472-0.366,0.815h2.375c-0.026-0.366-0.147-0.644-0.368-0.832
		c-0.22-0.19-0.491-0.285-0.817-0.285C361.434,171.652,361.16,171.753,360.965,171.954z"/>
	<path fill="#003C6A" d="M366.169,174.243c0.028,0.246,0.092,0.419,0.188,0.523c0.172,0.184,0.488,0.275,0.952,0.275
		c0.272,0,0.488-0.04,0.649-0.121c0.159-0.08,0.239-0.201,0.239-0.361c0-0.155-0.063-0.273-0.193-0.354
		c-0.128-0.081-0.61-0.22-1.441-0.416c-0.598-0.148-1.02-0.334-1.267-0.557c-0.244-0.218-0.366-0.535-0.366-0.947
		c0-0.486,0.191-0.904,0.573-1.255c0.384-0.35,0.923-0.524,1.616-0.524c0.659,0,1.197,0.132,1.611,0.395
		c0.416,0.263,0.653,0.717,0.715,1.361h-1.378c-0.02-0.177-0.069-0.317-0.15-0.421c-0.151-0.187-0.411-0.28-0.775-0.28
		c-0.302,0-0.515,0.046-0.643,0.14s-0.192,0.203-0.192,0.329c0,0.157,0.068,0.272,0.203,0.344c0.137,0.074,0.616,0.2,1.439,0.381
		c0.549,0.129,0.961,0.324,1.235,0.586c0.271,0.264,0.405,0.595,0.405,0.99c0,0.522-0.194,0.948-0.584,1.279
		c-0.389,0.33-0.99,0.495-1.804,0.495c-0.83,0-1.443-0.175-1.838-0.524c-0.396-0.35-0.594-0.795-0.594-1.337L366.169,174.243"/>
</g>
</svg>
